<?xml version="1.0" standalone="no"?>
<!DOCTYPE svg PUBLIC "-//W3C//DTD SVG 20010904//EN"
 "http://www.w3.org/TR/2001/REC-SVG-20010904/DTD/svg10.dtd">
<svg version="1.0" xmlns="http://www.w3.org/2000/svg"
 width="200.000000pt" height="200.000000pt" viewBox="0 0 200.000000 200.000000"
 preserveAspectRatio="xMidYMid meet">
<metadata>
Created by potrace 1.15, written by Peter Selinger 2001-2017
</metadata>
<g transform="translate(0.000000,200.000000) scale(0.100000,-0.100000)"
fill="#000000" stroke="none">
<path d="M633 1700 l-398 -227 0 -462 0 -462 398 -228 398 -229 397 227 397
227 0 464 0 464 -260 149 c-143 82 -321 184 -397 227 l-136 78 -399 -228z
m300 -337 c-15 -27 -39 -68 -54 -92 l-26 -43 -52 87 c-28 48 -51 89 -51 91 0
2 47 4 105 4 l106 0 -28 -47z m737 42 c0 -7 -100 -175 -105 -175 -2 0 -39 62
-102 173 -2 4 43 7 101 7 58 0 106 -2 106 -5z m-885 -87 c26 -46 50 -86 52
-90 2 -5 -44 -8 -102 -8 l-106 0 32 58 c46 82 70 122 74 122 2 0 24 -37 50
-82z m268 -50 l28 -48 -106 0 c-58 0 -105 2 -105 4 0 5 60 111 87 155 l15 24
27 -44 c15 -24 39 -65 54 -91z m451 41 c25 -45 45 -84 42 -86 -2 -2 -48 -2
-103 -1 l-100 3 49 87 c28 49 54 86 58 83 4 -3 29 -42 54 -86z m-670 -107 c6
-10 -87 -165 -99 -165 -9 0 -103 149 -105 164 0 9 199 9 204 1z m242 0 c-59
-107 -99 -172 -104 -172 -7 0 -102 161 -102 172 0 3 47 5 105 6 58 0 104 -2
101 -6z m474 1 c0 -12 -95 -173 -102 -173 -9 0 -98 151 -98 166 0 7 36 11 100
13 55 1 100 -2 100 -6z m-881 -93 c28 -49 51 -92 51 -95 0 -3 -48 -5 -106 -5
-58 0 -104 3 -102 8 5 11 103 182 104 182 1 0 25 -40 53 -90z m475 0 c25 -44
46 -84 46 -90 0 -6 -39 -10 -100 -10 -55 0 -100 3 -100 7 0 12 93 173 100 173
4 0 28 -36 54 -80z m239 -3 c26 -46 47 -86 47 -90 0 -4 -45 -7 -100 -7 -63 0
-100 4 -100 10 0 15 90 170 98 170 4 0 28 -37 55 -83z m-663 -112 c0 -7 -100
-175 -104 -175 -2 0 -17 24 -34 53 -16 28 -40 69 -52 90 l-22 37 106 0 c58 0
106 -2 106 -5z m486 -3 c10 -7 104 -166 104 -177 0 -3 -45 -5 -100 -5 -55 0
-100 3 -100 7 0 3 21 42 46 85 26 43 45 81 42 83 -2 2 -26 -34 -54 -80 -27
-47 -51 -85 -54 -85 -6 1 -100 164 -100 174 0 9 203 7 216 -2z m222 -1 c-8
-24 -94 -171 -99 -171 -6 0 -99 162 -99 173 0 4 45 7 101 7 56 0 99 -4 97 -9z
m-873 -96 c25 -43 43 -80 41 -82 -2 -2 -49 -2 -104 -1 l-100 3 51 87 c28 49
55 84 59 80 5 -5 29 -44 53 -87z m45 -104 c0 -5 -23 -48 -51 -95 l-52 -87 -34
57 c-18 31 -43 74 -54 95 l-19 39 105 0 c58 0 105 -4 105 -9z m710 -1 c0 -12
-93 -179 -100 -179 -7 -1 -100 166 -100 179 0 6 40 10 100 10 58 0 100 -4 100
-10z"/>
</g>
</svg>
